<?xml version="1.0" standalone="no"?>
<!DOCTYPE svg PUBLIC "-//W3C//DTD SVG 20010904//EN"
 "http://www.w3.org/TR/2001/REC-SVG-20010904/DTD/svg10.dtd">
<svg version="1.0" xmlns="http://www.w3.org/2000/svg"
 width="700.000000pt" height="700.000000pt" viewBox="0 0 700.000000 700.000000"
 preserveAspectRatio="xMidYMid meet">
<metadata>
Created by potrace 1.14, written by Peter Selinger 2001-2017
</metadata>
<g transform="translate(0.000000,700.000000) scale(0.100000,-0.100000)"
fill="#000000" stroke="none">
<path d="M2229 4555 c-31 -17 -87 -84 -117 -140 -16 -31 -53 -139 -52 -152 2
-28 -13 -28 -1027 -28 l-1028 0 -3 -66 -3 -67 1023 0 1023 0 11 -87 c7 -49 10
-94 7 -102 -4 -11 -151 -13 -818 -13 l-812 0 -2 -65 -2 -65 48 0 c26 0 360 -1
742 -1 l694 0 -24 -27 c-13 -15 -32 -35 -41 -44 -9 -10 -31 -42 -49 -72 -18
-30 -40 -56 -48 -58 -9 -2 -213 -3 -453 -3 l-438 1 0 -66 0 -67 418 0 c229 -1
424 -2 432 -2 12 -1 15 -15 15 -63 0 -35 2 -79 5 -98 l5 -35 -214 -2 c-117 -1
-216 -5 -219 -7 -4 -5 -5 -34 -3 -98 l1 -28 251 0 250 0 50 -54 c83 -91 166
-128 286 -127 35 0 63 -4 63 -9 0 -6 -17 -10 -37 -10 -21 -1 -127 -1 -236 -1
l-198 -1 3 -66 3 -66 70 -1 c39 0 69 -4 68 -8 -2 -4 -10 -21 -19 -38 -8 -17
-16 -52 -17 -78 -5 -205 313 -280 437 -103 27 38 31 52 34 135 l4 92 1467 -1
c806 0 1472 2 1479 4 8 3 12 26 12 67 l0 64 -1486 0 c-817 0 -1489 3 -1495 6
-20 13 -7 36 31 55 45 23 116 91 125 121 6 19 37 19 1631 19 1292 0 1624 3
1625 13 3 25 -2 111 -5 115 -3 2 -725 5 -1607 5 l-1602 2 -3 49 c-2 26 -13 69
-24 94 -12 26 -16 48 -11 51 5 3 835 6 1845 5 1307 0 1836 2 1839 10 2 6 3 36
2 66 l-1 55 -1959 2 c-1078 0 -1965 1 -1971 2 -6 1 -11 7 -11 14 -2 38 -15
142 -18 146 -2 2 6 12 19 22 23 18 100 18 2087 18 1135 0 2115 0 2177 0 l112
1 0 65 0 65 -2129 0 -2130 0 24 53 c13 28 29 73 36 100 10 43 14 47 43 47 17
1 1056 1 2309 1 l2277 1 0 66 0 67 -2296 0 c-1263 0 -2298 3 -2301 8 -2 4 -6
22 -8 40 -26 215 -87 315 -166 272z m70 -229 c7 -8 11 -32 9 -53 l-3 -38 -62
0 c-66 -1 -70 3 -52 38 31 60 82 85 108 53z m-61 -225 c10 -1 8 -9 -7 -29 -26
-37 -82 -92 -94 -92 -10 0 -7 88 4 110 6 14 18 15 97 11z m-130 -494 l2 -42
-43 2 c-23 1 -51 2 -62 3 -16 1 -9 11 34 50 32 30 57 46 61 40 4 -6 8 -30 8
-53z m-131 -176 c1 -1 -7 -22 -17 -47 -12 -26 -20 -68 -20 -99 l0 -53 -47 2
c-47 1 -48 2 -51 34 -4 38 22 135 41 154 10 10 79 17 94 9z m323 -128 c16 -18
30 -43 30 -53 0 -17 -7 -20 -44 -20 -41 0 -44 2 -50 31 -3 17 -6 44 -6 59 0
23 4 27 20 23 11 -3 33 -21 50 -40z m-147 -24 l2 -44 -44 -3 c-43 -3 -43 -3
-37 25 9 33 56 87 68 75 4 -4 9 -28 11 -53z m-107 -194 c25 -19 63 -19 70 0 4
8 18 15 34 15 25 0 28 -4 33 -47 3 -27 1 -51 -4 -54 -6 -3 -35 -4 -66 -2 -63
4 -147 40 -183 78 l-23 25 59 0 c37 0 68 -6 80 -15z m254 9 c0 -13 -21 -44
-30 -44 -6 0 -10 11 -10 25 0 18 5 25 20 25 11 0 20 -3 20 -6z m-76 -394 c-1
-116 -54 -180 -147 -180 -48 0 -61 13 -29 28 56 24 81 123 47 182 -8 14 -14
27 -15 30 0 3 33 5 73 5 l72 -1 -1 -64z"/>
</g>
</svg>
